<?xml version="1.0" standalone="no"?><!DOCTYPE svg PUBLIC "-//W3C//DTD SVG 1.1//EN" "http://www.w3.org/Graphics/SVG/1.1/DTD/svg11.dtd"><svg t="1607118301926" class="icon" viewBox="0 0 1024 1024" version="1.1" xmlns="http://www.w3.org/2000/svg" p-id="1219" xmlns:xlink="http://www.w3.org/1999/xlink" width="200" height="200"><defs><style type="text/css"></style></defs><path d="M864.08 65H159.92a59.86 59.86 0 0 0-59.87 59.87v774.26A59.86 59.86 0 0 0 159.92 959h704.16A59.86 59.86 0 0 0 924 899.13V124.87A59.86 59.86 0 0 0 864.08 65zM694.14 775.51h-0.84c-20.27 0.47-40.62 0-60.9 0H192.57c-13.42 0-23.36-11-23.95-23.94s11.42-24 23.95-24h0.84c20.28-0.47 40.62 0 60.9 0h439.83c13.43 0 23.37 11 24 24s-11.47 23.94-24 23.94z m0-240.29h-0.84c-20.27 0.47-40.62 0-60.9 0H192.57c-13.42 0-23.36-11-23.95-24s11.42-23.94 23.95-23.94h0.84c20.28-0.47 40.62 0 60.9 0h439.83c13.43 0 23.37 11 24 23.94s-11.47 24-24 24z m0-240.3h-0.84c-20.27 0.47-40.62 0-60.9 0H192.57c-13.42 0-23.36-11-23.95-23.94s11.42-24 23.95-24h0.84c20.28-0.47 40.62 0 60.9 0h439.83c13.43 0 23.37 11 24 24s-11.47 23.94-24 23.94z m126.8 486.39a29.74 29.74 0 1 1 29.74-29.74 29.74 29.74 0 0 1-29.74 29.74z m0-240.3a29.74 29.74 0 1 1 29.74-29.74A29.73 29.73 0 0 1 820.94 541z m0-240.3A29.74 29.74 0 1 1 850.68 271a29.73 29.73 0 0 1-29.74 29.71z" p-id="1220"></path></svg>