<?xml version="1.0" standalone="no"?><!DOCTYPE svg PUBLIC "-//W3C//DTD SVG 1.1//EN" "http://www.w3.org/Graphics/SVG/1.1/DTD/svg11.dtd"><svg t="1607198713564" class="icon" viewBox="0 0 1024 1024" version="1.1" xmlns="http://www.w3.org/2000/svg" p-id="1051" xmlns:xlink="http://www.w3.org/1999/xlink" width="200" height="200"><defs><style type="text/css"></style></defs><path d="M821.77 960.19H202.23c-39.49 0-71.62-32.13-71.62-71.62V135.43c0-39.49 32.13-71.62 71.62-71.62h619.53c39.49 0 71.62 32.13 71.62 71.62v753.14c0 39.49-32.12 71.62-71.61 71.62z m-603.62-87.53h587.7V151.34h-587.7v721.32z" p-id="1052"></path><path d="M683.68 357.36h-342.4c-12.09 0-21.89-9.8-21.89-21.89v-43.61c0-12.09 9.8-21.89 21.89-21.89h342.39c12.09 0 21.89 9.8 21.89 21.89v43.61c0 12.09-9.8 21.89-21.88 21.89zM682.72 555.69h-342.4c-12.09 0-21.89-9.8-21.89-21.89v-43.61c0-12.09 9.8-21.89 21.89-21.89h342.39c12.09 0 21.89 9.8 21.89 21.89v43.61c0 12.09-9.8 21.89-21.88 21.89zM525.48 754.03H340.32c-12.09 0-21.89-9.8-21.89-21.89v-43.61c0-12.09 9.8-21.89 21.89-21.89h185.15c12.09 0 21.89 9.8 21.89 21.89v43.61c0.01 12.09-9.79 21.89-21.88 21.89z" p-id="1053"></path></svg>