<?xml version="1.0" standalone="no"?><!DOCTYPE svg PUBLIC "-//W3C//DTD SVG 1.1//EN" "http://www.w3.org/Graphics/SVG/1.1/DTD/svg11.dtd"><svg t="1607198696472" class="icon" viewBox="0 0 1024 1024" version="1.1" xmlns="http://www.w3.org/2000/svg" p-id="796" xmlns:xlink="http://www.w3.org/1999/xlink" width="200" height="200"><defs><style type="text/css"></style></defs><path d="M529.31445313 483.69921875c51.06445313-0.87890625 98.96484375-21.18164063 135.17578124-57.39257813 37.00195313-37.00195313 57.39257813-86.30859375 57.39257813-138.60351562S701.4921875 186.01367187 664.49023438 149.01171875c-37.00195313-37.00195313-86.30859375-57.39257813-138.60351563-57.39257813-52.47070313 0-101.68945313 20.390625-138.69140625 57.39257813-37.00195313 37.00195313-57.39257813 86.30859375-57.39257813 138.60351563s20.390625 101.6015625 57.39257813 138.60351562c10.546875 10.546875 22.1484375 19.77539063 34.453125 27.50976563-18.45703125 4.921875-36.47460938 11.16210938-54.22851563 18.63281249-49.5703125 20.91796875-94.04296875 50.9765625-132.18749999 89.12109376-38.23242188 38.23242188-68.203125 82.70507813-89.12109376 132.18749999C124.40234375 745.0859375 113.328125 799.578125 113.328125 855.74023438h43.9453125c0-205.13671875 166.90429688-372.04101563 372.04101563-372.04101563zM373.66015625 287.61523437c0-83.84765625 68.203125-152.13867188 152.13867188-152.13867187s152.13867188 68.203125 152.13867187 152.13867188-68.203125 152.13867188-152.13867188 152.13867187-152.13867188-68.203125-152.13867187-152.13867188zM642.95703125 568.42578125c0 12.12890625 9.84375 21.97265625 21.97265625 21.97265625h169.54101563c12.12890625 0 21.97265625-9.84375 21.97265624-21.97265625s-9.84375-21.97265625-21.97265625-21.97265625H664.9296875c-12.12890625 0-21.97265625 9.84375-21.97265625 21.97265625zM834.47070313 685.05664063H546.54101563c-12.12890625 0-21.97265625 9.84375-21.97265625 21.97265624s9.84375 21.97265625 21.97265625 21.97265625h287.84179687c12.12890625 0 21.97265625-9.84375 21.97265625-21.97265625s-9.75585938-21.97265625-21.88476563-21.97265625zM834.47070313 836.58007813H546.54101563c-12.12890625 0-21.97265625 9.84375-21.97265625 21.97265624s9.84375 21.97265625 21.97265625 21.97265625h287.84179687c12.12890625 0 21.97265625-9.84375 21.97265625-21.97265625s-9.75585938-21.97265625-21.88476563-21.97265625z" p-id="797"></path></svg>